<svg width="13" height="41" viewBox="0 0 13 41" fill="none" xmlns="http://www.w3.org/2000/svg">
<path d="M3.83146 16.3302C3.6111 16.5416 3.48731 16.8284 3.48731 17.1275C3.48731 17.4265 3.6111 17.7133 3.83146 17.9247L9.64999 23.5068L3.83146 29.0889C3.61735 29.3016 3.49887 29.5864 3.50154 29.8821C3.50422 30.1778 3.62784 30.4606 3.84578 30.6697C4.06372 30.8788 4.35854 30.9974 4.66675 31C4.97495 31.0025 5.27187 30.8889 5.49356 30.6834L12.1431 24.3041C12.3635 24.0926 12.4873 23.8058 12.4873 23.5068C12.4873 23.2078 12.3635 22.921 12.1431 22.7095L5.49357 16.3302C5.27313 16.1188 4.97421 16 4.66252 16C4.35083 16 4.0519 16.1188 3.83146 16.3302Z" fill="#F1F1F1"/>
</svg>
