<svg width="10" height="10" viewBox="0 0 10 15" fill="none" xmlns="http://www.w3.org/2000/svg">
<path d="M0.613203 0.330173C0.392838 0.541646 0.269044 0.828428 0.269044 1.12745C0.269044 1.42647 0.392838 1.71326 0.613203 1.92473L6.43173 7.50681L0.613202 13.0889C0.399084 13.3016 0.280604 13.5864 0.283282 13.8821C0.28596 14.1778 0.409582 14.4606 0.627522 14.6697C0.845461 14.8788 1.14028 14.9974 1.44848 15C1.75669 15.0025 2.05361 14.8889 2.2753 14.6834L8.92488 8.30409C9.14525 8.09261 9.26904 7.80583 9.26904 7.50681C9.26904 7.20778 9.14525 6.921 8.92488 6.70953L2.2753 0.330173C2.05487 0.118763 1.75594 -3.28408e-07 1.44425 -3.42032e-07C1.13256 -3.55657e-07 0.833634 0.118763 0.613203 0.330173Z" fill="#353535"/>
</svg>
