<svg width="14" height="26" viewBox="0 0 14 26" fill="none" xmlns="http://www.w3.org/2000/svg">
<path d="M13.4646 25.4277C13.8074 25.0611 14 24.5641 14 24.0458C14 23.5274 13.8074 23.0304 13.4646 22.6638L4.41359 12.9882L13.4646 3.3126C13.7977 2.94394 13.982 2.45019 13.9779 1.93768C13.9737 1.42517 13.7814 0.934919 13.4424 0.572507C13.1033 0.210096 12.6447 0.00452749 12.1653 7.38548e-05C11.6859 -0.00437978 11.224 0.19264 10.8792 0.548698L0.535358 11.6062C0.192568 11.9728 -5.9142e-07 12.4699 -5.68764e-07 12.9882C-5.46108e-07 13.5065 0.192568 14.0036 0.535358 14.3701L10.8792 25.4277C11.222 25.7941 11.687 26 12.1719 26C12.6567 26 13.1217 25.7941 13.4646 25.4277Z" fill="white"/>
</svg>
