<svg width="46" height="46" viewBox="0 0 46 46" fill="none" xmlns="http://www.w3.org/2000/svg">
<path d="M22.9512 39.5366L20.3483 37.2315C17.3265 34.5423 14.8283 32.2225 12.8537 30.2721C10.879 28.3217 9.30829 26.5704 8.14146 25.0184C6.97463 23.4663 6.15965 22.0407 5.69651 20.7416C5.23337 19.4425 5.0012 18.1127 5 16.7521C5 13.9742 5.94244 11.6544 7.82732 9.79265C9.71219 7.93088 12.0608 7 14.8732 7C16.4289 7 17.9099 7.32507 19.3161 7.97521C20.7223 8.62535 21.934 9.54146 22.9512 10.7235C23.9685 9.54146 25.1802 8.62535 26.5863 7.97521C27.9925 7.32507 29.4735 7 31.0293 7C33.8416 7 36.1902 7.93088 38.0751 9.79265C39.96 11.6544 40.9024 13.9742 40.9024 16.7521C40.9024 18.1115 40.6709 19.4413 40.2077 20.7416C39.7446 22.0419 38.929 23.4675 37.761 25.0184C36.5929 26.5692 35.0222 28.3205 33.0488 30.2721C31.0753 32.2237 28.5771 34.5435 25.5541 37.2315L22.9512 39.5366ZM22.9512 34.7492C25.8234 32.2077 28.187 30.0286 30.042 28.2117C31.8969 26.3949 33.3629 24.8139 34.44 23.4687C35.5171 22.1235 36.265 20.926 36.6839 19.8763C37.1028 18.8266 37.3122 17.7852 37.3122 16.7521C37.3122 14.979 36.7138 13.5014 35.5171 12.3193C34.3203 11.1373 32.8244 10.5462 31.0293 10.5462C29.6231 10.5462 28.3216 10.9375 27.1249 11.72C25.9281 12.5026 25.1054 13.5002 24.6566 14.713H21.2459C20.7971 13.5014 19.9743 12.5043 18.7776 11.7218C17.5808 10.9393 16.2793 10.5474 14.8732 10.5462C13.078 10.5462 11.5821 11.1373 10.3854 12.3193C9.18862 13.5014 8.59024 14.979 8.59024 16.7521C8.59024 17.7864 8.79967 18.8284 9.21854 19.8781C9.6374 20.9278 10.3854 22.1246 11.4624 23.4687C12.5395 24.8127 14.0055 26.3937 15.8605 28.2117C17.7154 30.0298 20.079 32.2089 22.9512 34.7492Z" fill="white"/>
</svg>
