<svg width="21" height="20" viewBox="0 0 21 20" fill="none" xmlns="http://www.w3.org/2000/svg">
<path d="M10.2335 19.3467L8.76144 18.0391C7.05253 16.5135 5.63972 15.1974 4.52301 14.091C3.4063 12.9845 2.518 11.991 1.85813 11.1105C1.19825 10.23 0.737357 9.42128 0.475438 8.6843C0.213518 7.94732 0.0822198 7.19291 0.081543 6.42105C0.081543 4.84516 0.614519 3.52913 1.68047 2.47295C2.74642 1.41676 4.07463 0.888672 5.6651 0.888672C6.54493 0.888672 7.38247 1.07308 8.1777 1.44191C8.97294 1.81074 9.65819 2.33044 10.2335 3.00104C10.8087 2.33044 11.494 1.81074 12.2892 1.44191C13.0845 1.07308 13.922 0.888672 14.8018 0.888672C16.3923 0.888672 17.7205 1.41676 18.7865 2.47295C19.8524 3.52913 20.3854 4.84516 20.3854 6.42105C20.3854 7.19224 20.2544 7.94665 19.9925 8.6843C19.7306 9.42195 19.2694 10.2307 18.6088 11.1105C17.9483 11.9903 17.06 12.9838 15.9439 14.091C14.8279 15.1981 13.4151 16.5141 11.7055 18.0391L10.2335 19.3467ZM10.2335 16.6308C11.8578 15.189 13.1944 13.9528 14.2435 12.9221C15.2925 11.8914 16.1216 10.9945 16.7307 10.2314C17.3398 9.46823 17.7628 8.78892 17.9997 8.19343C18.2366 7.59794 18.355 7.00715 18.355 6.42105C18.355 5.41517 18.0166 4.57693 17.3398 3.90634C16.663 3.23574 15.817 2.90045 14.8018 2.90045C14.0066 2.90045 13.2706 3.12241 12.5938 3.56635C11.917 4.01028 11.4517 4.57626 11.1979 5.26428H9.26903C9.01523 4.57693 8.54994 4.01128 7.87314 3.56735C7.19635 3.12342 6.46034 2.90112 5.6651 2.90045C4.64991 2.90045 3.80392 3.23574 3.12712 3.90634C2.45033 4.57693 2.11193 5.41517 2.11193 6.42105C2.11193 7.00782 2.23037 7.59895 2.46724 8.19444C2.70412 8.78992 3.12712 9.4689 3.73624 10.2314C4.34535 10.9938 5.17442 11.8907 6.22346 12.9221C7.27249 13.9535 8.60916 15.1897 10.2335 16.6308Z" fill="#DB6900"/>
</svg>
