<svg width="26" height="24" viewBox="0 0 26 24" fill="none" xmlns="http://www.w3.org/2000/svg">
<path d="M13.0002 23.2939L11.2175 21.7103C9.14802 19.8628 7.43708 18.269 6.08473 16.9291C4.73238 15.5891 3.65664 14.386 2.85753 13.3197C2.05841 12.2534 1.50025 11.274 1.18307 10.3815C0.865878 9.48904 0.706874 8.57543 0.706055 7.64071C0.706055 5.73228 1.3515 4.13855 2.64238 2.85949C3.93326 1.58044 5.54174 0.940918 7.46782 0.940918C8.53331 0.940918 9.54757 1.16424 10.5106 1.6109C11.4737 2.05755 12.3035 2.68692 13.0002 3.49902C13.6968 2.68692 14.5267 2.05755 15.4897 1.6109C16.4528 1.16424 17.467 0.940918 18.5325 0.940918C20.4586 0.940918 22.0671 1.58044 23.358 2.85949C24.6488 4.13855 25.2943 5.73228 25.2943 7.64071C25.2943 8.57462 25.1357 9.48823 24.8185 10.3815C24.5013 11.2748 23.9428 12.2542 23.1428 13.3197C22.3429 14.3852 21.2671 15.5883 19.9156 16.9291C18.5641 18.2698 16.8531 19.8636 14.7828 21.7103L13.0002 23.2939ZM13.0002 20.0049C14.9672 18.2589 16.586 16.7618 17.8563 15.5136C19.1267 14.2654 20.1308 13.1792 20.8684 12.255C21.6061 11.3309 22.1183 10.5082 22.4052 9.78708C22.692 9.06594 22.8355 8.35048 22.8355 7.64071C22.8355 6.42256 22.4257 5.40745 21.6061 4.59535C20.7864 3.78325 19.7619 3.37721 18.5325 3.37721C17.5695 3.37721 16.6782 3.64601 15.8586 4.18362C15.0389 4.72122 14.4755 5.40663 14.1681 6.23984H11.8322C11.5249 5.40745 10.9614 4.72244 10.1418 4.18484C9.32218 3.64723 8.43086 3.37802 7.46782 3.37721C6.23841 3.37721 5.2139 3.78325 4.39429 4.59535C3.57468 5.40745 3.16488 6.42256 3.16488 7.64071C3.16488 8.35129 3.30831 9.06716 3.59517 9.7883C3.88203 10.5094 4.39429 11.3317 5.13194 12.255C5.86958 13.1784 6.8736 14.2646 8.144 15.5136C9.41439 16.7626 11.0331 18.2597 13.0002 20.0049Z" fill="#DB6900"/>
<path d="M13.0002 20.0049C14.9672 18.2589 16.586 16.7618 17.8563 15.5136C19.1267 14.2654 20.1308 13.1792 20.8684 12.255C21.6061 11.3309 22.1183 10.5082 22.4052 9.78708C22.692 9.06594 22.8355 8.35048 22.8355 7.64071C22.8355 6.42256 22.4257 5.40745 21.6061 4.59535C20.7864 3.78325 19.7619 3.37721 18.5325 3.37721C17.5695 3.37721 16.6782 3.64601 15.8586 4.18362C15.0389 4.72122 14.4755 5.40663 14.1681 6.23984H11.8322C11.5249 5.40745 10.9614 4.72244 10.1418 4.18484C9.32218 3.64723 8.43086 3.37802 7.46782 3.37721C6.23841 3.37721 5.2139 3.78325 4.39429 4.59535C3.57468 5.40745 3.16488 6.42256 3.16488 7.64071C3.16488 8.35129 3.30831 9.06716 3.59517 9.7883C3.88203 10.5094 4.39429 11.3317 5.13194 12.255C5.86958 13.1784 6.8736 14.2646 8.144 15.5136C9.41439 16.7626 11.0331 18.2597 13.0002 20.0049Z" fill="#DB6900"/>
</svg>
