<svg width="30" height="25" viewBox="0 0 30 25" fill="none" xmlns="http://www.w3.org/2000/svg">
<path fill-rule="evenodd" clip-rule="evenodd" d="M20.1284 7.43159L-2.77844e-07 7.43159L0 4.25342L20.1284 4.25342L20.1284 7.43159Z" fill="#FCFCFC"/>
<path fill-rule="evenodd" clip-rule="evenodd" d="M9.87159 20.0161L30 20.0161L30 16.8379L9.87159 16.8379L9.87159 20.0161Z" fill="#FCFCFC"/>
<path fill-rule="evenodd" clip-rule="evenodd" d="M23.9888 3.00562C22.3288 3.00562 20.9832 4.35128 20.9832 6.01124C20.9832 7.67119 22.3288 9.01685 23.9888 9.01685C25.6487 9.01685 26.9944 7.67119 26.9944 6.01124C26.9944 4.35128 25.6487 3.00562 23.9888 3.00562ZM17.9775 6.01124C17.9775 2.69132 20.6689 0 23.9888 0C27.3087 0 30 2.69132 30 6.01124C30 9.33115 27.3087 12.0225 23.9888 12.0225C20.6689 12.0225 17.9775 9.33115 17.9775 6.01124Z" fill="#FCFCFC"/>
<path fill-rule="evenodd" clip-rule="evenodd" d="M6.01123 15.5901C7.67118 15.5901 9.01684 16.9358 9.01684 18.5957C9.01684 20.2557 7.67118 21.6013 6.01123 21.6013C4.35127 21.6013 3.00561 20.2557 3.00561 18.5957C3.00561 16.9358 4.35127 15.5901 6.01123 15.5901ZM12.0225 18.5957C12.0225 15.2758 9.33114 12.5845 6.01123 12.5845C2.69131 12.5845 -1.04904e-05 15.2758 -1.04904e-05 18.5957C-1.04904e-05 21.9156 2.69131 24.6069 6.01123 24.6069C9.33114 24.6069 12.0225 21.9156 12.0225 18.5957Z" fill="#FCFCFC"/>
</svg>
