<svg width="46" height="46" viewBox="0 0 46 46" fill="none" xmlns="http://www.w3.org/2000/svg">
<path d="M20.3431 5.91236C21.0968 5.32177 22.0334 5 22.9988 5C23.9641 5 24.9007 5.32177 25.6544 5.91236L38.4044 15.899C39.4123 16.6884 40 17.8844 40 19.1494V35.8389C40 36.9425 39.5522 38.0009 38.7552 38.7812C37.9582 39.5616 36.8772 40 35.75 40H27.25C26.7669 40 26.3036 39.8121 25.9621 39.4777C25.6205 39.1432 25.4286 38.6896 25.4286 38.2167V25.7334H20.5714V38.2167C20.5714 38.6896 20.3795 39.1432 20.0379 39.4777C19.6964 39.8121 19.2331 40 18.75 40H10.25C9.12283 40 8.04183 39.5616 7.2448 38.7812C6.44777 38.0009 6 36.9425 6 35.8389V19.147C6 17.8844 6.58771 16.6884 7.59557 15.899L20.3431 5.91236ZM23.3789 8.69673C23.2713 8.61261 23.1377 8.5668 23 8.5668C22.8623 8.5668 22.7287 8.61261 22.6211 8.69673L9.87114 18.6833C9.79971 18.7392 9.74209 18.8101 9.70256 18.8908C9.66303 18.9715 9.64262 19.0599 9.64286 19.1494V35.8389C9.64286 36.167 9.91486 36.4334 10.25 36.4334H16.9286V23.9501C16.9286 23.4771 17.1205 23.0235 17.4621 22.6891C17.8036 22.3546 18.2669 22.1668 18.75 22.1668H27.25C27.7331 22.1668 28.1964 22.3546 28.5379 22.6891C28.8795 23.0235 29.0714 23.4771 29.0714 23.9501V36.4334H35.75C35.911 36.4334 36.0655 36.3707 36.1793 36.2592C36.2932 36.1478 36.3571 35.9966 36.3571 35.8389V19.147C36.357 19.0579 36.3364 18.97 36.2969 18.8897C36.2574 18.8095 36.2 18.7389 36.1289 18.6833L23.3789 8.69673Z" fill="white"/>
</svg>
