<svg width="36" height="37" viewBox="0 0 36 37" fill="none" xmlns="http://www.w3.org/2000/svg">
<path fill-rule="evenodd" clip-rule="evenodd" d="M18 36.5C27.9409 36.5 36 28.4409 36 18.5C36 8.55908 27.9409 0.5 18 0.5C8.05908 0.5 0 8.55908 0 18.5C0 28.4409 8.05908 36.5 18 36.5ZM16.5044 22.2715V20.2715H19.4902C21.8755 20.2715 23.7183 19.7383 25.019 18.6714C26.3398 17.5859 27 16.1572 27 14.3857C27 12.6143 26.3398 11.1953 25.019 10.1284C23.7183 9.04297 21.8755 8.5 19.4902 8.5H12.3652V16.8428H10V20.2715H12.3652V22.2715H10V25.4141H12.3652V28.5H16.5044V25.4141H22.6836V22.2715H16.5044ZM16.5044 16.8428V11.9287H19.4609C20.5449 11.9287 21.3628 12.1665 21.9146 12.6431C22.4863 13.1191 22.772 13.7002 22.772 14.3857C22.772 15.0713 22.4863 15.6523 21.9146 16.1284C21.6289 16.3755 21.2715 16.5581 20.8428 16.6768C20.4438 16.7876 19.9834 16.8428 19.4609 16.8428H16.5044Z" fill="#E36E00"/>
</svg>
