<svg width="9" height="15" viewBox="0 0 9 15" fill="none" xmlns="http://www.w3.org/2000/svg">
<path d="M0.34416 0.330173C0.123795 0.541646 9.17463e-07 0.828428 9.04392e-07 1.12745C8.91321e-07 1.42647 0.123795 1.71326 0.34416 1.92473L6.16269 7.50681L0.34416 13.0889C0.130041 13.3016 0.0115608 13.5864 0.0142387 13.8821C0.0169166 14.1778 0.140539 14.4606 0.358479 14.6697C0.576418 14.8788 0.871239 14.9974 1.17944 15C1.48764 15.0025 1.78457 14.8889 2.00626 14.6834L8.65584 8.30409C8.87621 8.09261 9 7.80583 9 7.50681C9 7.20778 8.87621 6.921 8.65584 6.70953L2.00626 0.330173C1.78583 0.118763 1.4869 -3.28408e-07 1.17521 -3.42032e-07C0.863521 -3.55657e-07 0.564591 0.118763 0.34416 0.330173Z" fill="#E36E00"/>
</svg>
