<svg width="12" height="41" viewBox="0 0 12 41" fill="none" xmlns="http://www.w3.org/2000/svg">
<path d="M3.34416 13.3302C3.1238 13.5416 3 13.8284 3 14.1275C3 14.4265 3.1238 14.7133 3.34416 14.9247L9.16269 20.5068L3.34416 26.0889C3.13004 26.3016 3.01156 26.5864 3.01424 26.8821C3.01692 27.1778 3.14054 27.4606 3.35848 27.6697C3.57642 27.8788 3.87124 27.9974 4.17944 28C4.48764 28.0025 4.78457 27.8889 5.00626 27.6834L11.6558 21.3041C11.8762 21.0926 12 20.8058 12 20.5068C12 20.2078 11.8762 19.921 11.6558 19.7095L5.00626 13.3302C4.78583 13.1188 4.4869 13 4.17521 13C3.86352 13 3.56459 13.1188 3.34416 13.3302Z" fill="#E36E00"/>
</svg>
