<svg width="14" height="15" viewBox="0 0 14 15" fill="none" xmlns="http://www.w3.org/2000/svg">
<path d="M13 13.5L10.1047 10.6047M10.1047 10.6047C10.6 10.1094 10.9928 9.5215 11.2608 8.87442C11.5289 8.22734 11.6668 7.5338 11.6668 6.83341C11.6668 6.13302 11.5289 5.43948 11.2608 4.7924C10.9928 4.14532 10.6 3.55737 10.1047 3.06212C9.60945 2.56687 9.0215 2.17401 8.37442 1.90598C7.72734 1.63795 7.0338 1.5 6.33341 1.5C5.63302 1.5 4.93948 1.63795 4.2924 1.90598C3.64532 2.17401 3.05737 2.56687 2.56212 3.06212C1.56191 4.06233 1 5.4189 1 6.83341C1 8.24792 1.56191 9.60449 2.56212 10.6047C3.56233 11.6049 4.9189 12.1668 6.33341 12.1668C7.74792 12.1668 9.10449 11.6049 10.1047 10.6047Z" stroke="#979797" stroke-width="1.87374" stroke-linecap="round" stroke-linejoin="round"/>
</svg>
