<svg width="35" height="35" viewBox="0 0 35 35" fill="none" xmlns="http://www.w3.org/2000/svg">
<path d="M7.9931 12.6629L10.9466 24.4771H26.3051L29.2586 12.6629H7.9931Z" fill="#FCFCFC"/>
<path fill-rule="evenodd" clip-rule="evenodd" d="M3.83301 9.11866C3.83301 8.4523 4.3732 7.91211 5.03956 7.91211H7.10704C7.66069 7.91211 8.14329 8.28891 8.27757 8.82603L8.93515 11.4564H29.2586C29.6301 11.4564 29.981 11.6275 30.2096 11.9204C30.4383 12.2132 30.5192 12.5951 30.4291 12.9555L27.4756 24.7697C27.3413 25.3068 26.8587 25.6836 26.3051 25.6836H10.9466C10.393 25.6836 9.9104 25.3068 9.77612 24.7697L6.16499 10.3252H5.03956C4.3732 10.3252 3.83301 9.78502 3.83301 9.11866ZM9.53843 13.8695L11.8887 23.2705H25.363L27.7133 13.8695H9.53843Z" fill="#FCFCFC"/>
<path d="M13.8248 30.912C14.9909 30.912 15.9363 29.9667 15.9363 28.8006C15.9363 27.6344 14.9909 26.6891 13.8248 26.6891C12.6587 26.6891 11.7133 27.6344 11.7133 28.8006C11.7133 29.9667 12.6587 30.912 13.8248 30.912Z" fill="#FCFCFC"/>
<path d="M23.4772 30.912C24.6433 30.912 25.5887 29.9667 25.5887 28.8006C25.5887 27.6344 24.6433 26.6891 23.4772 26.6891C22.3111 26.6891 21.3657 27.6344 21.3657 28.8006C21.3657 29.9667 22.3111 30.912 23.4772 30.912Z" fill="#FCFCFC"/>
</svg>
