<svg width="50" height="46" viewBox="0 0 50 46" fill="none" xmlns="http://www.w3.org/2000/svg">
<path d="M5 7H8.33735L9.76765 12.75M9.76765 12.75L14.5353 31.9167H39.327L44.0947 12.75H9.76765Z" stroke="white" stroke-width="3.91489" stroke-linecap="round" stroke-linejoin="round"/>
<path d="M19.1813 42.3559C21.0637 42.3559 22.5897 40.8223 22.5897 38.9304C22.5897 37.0385 21.0637 35.5049 19.1813 35.5049C17.2989 35.5049 15.7729 37.0385 15.7729 38.9304C15.7729 40.8223 17.2989 42.3559 19.1813 42.3559Z" fill="white"/>
<path d="M34.7624 42.3559C36.6447 42.3559 38.1707 40.8223 38.1707 38.9304C38.1707 37.0385 36.6447 35.5049 34.7624 35.5049C32.88 35.5049 31.354 37.0385 31.354 38.9304C31.354 40.8223 32.88 42.3559 34.7624 42.3559Z" fill="white"/>
</svg>
