<svg width="36" height="28" viewBox="0 0 36 28" fill="none" xmlns="http://www.w3.org/2000/svg">
<path fill-rule="evenodd" clip-rule="evenodd" d="M8.15131 1.15128C8.61994 0.682647 9.37974 0.682647 9.84837 1.15128L17.4851 8.78803C17.9538 9.25666 17.9538 10.0165 17.4851 10.4851C17.0165 10.9537 16.2567 10.9537 15.7881 10.4851L10.1998 4.89686V25.9998C10.1998 26.6625 9.66258 27.1998 8.99984 27.1998C8.3371 27.1998 7.79984 26.6625 7.79984 25.9998V4.89686L2.21161 10.4851C1.74299 10.9537 0.983187 10.9537 0.514558 10.4851C0.0459287 10.0165 0.0459287 9.25666 0.514558 8.78803L8.15131 1.15128ZM26.9998 0.799805C27.6626 0.799805 28.1998 1.33706 28.1998 1.9998V23.1027L33.7881 17.5145C34.2567 17.0459 35.0165 17.0459 35.4851 17.5145C35.9538 17.9832 35.9538 18.743 35.4851 19.2116L27.8484 26.8483C27.3797 27.317 26.6199 27.317 26.1513 26.8483L18.5146 19.2116C18.0459 18.743 18.0459 17.9832 18.5146 17.5145C18.9832 17.0459 19.743 17.0459 20.2116 17.5145L25.7998 23.1027V1.9998C25.7998 1.33706 26.3371 0.799805 26.9998 0.799805Z" fill="white"/>
</svg>
