<svg width="31" height="31" viewBox="0 0 31 31" fill="none" xmlns="http://www.w3.org/2000/svg">
<path d="M16 1C12.2878 1 8.72437 2.47591 6.10156 5.10047C3.47606 7.72609 2.00075 11.2869 2 15C2 18.7115 3.47656 22.275 6.10156 24.8995C8.72437 27.5241 12.2878 29 16 29C19.7122 29 23.2756 27.5241 25.8984 24.8995C28.5234 22.275 30 18.7115 30 15C30 11.2885 28.5234 7.72503 25.8984 5.10047C23.2756 2.47591 19.7122 1 16 1Z" fill="#29AAED"/>
<path d="M8.33748 14.8521C12.4194 13.0741 15.1406 11.9018 16.5012 11.3354C20.3906 9.71821 21.1978 9.43733 21.725 9.42782C21.8409 9.42596 22.099 9.45461 22.2675 9.59079C22.4075 9.70563 22.4469 9.86094 22.4665 9.96999C22.484 10.0789 22.5081 10.3272 22.4884 10.521C22.2784 12.7348 21.3662 18.1068 20.9025 20.5864C20.7078 21.6355 20.3206 21.9872 19.9465 22.0216C19.1328 22.0964 18.5159 21.4843 17.7284 20.9683C16.4969 20.1605 15.8012 19.6578 14.6047 18.8696C13.2222 17.9587 14.119 17.458 14.9065 16.6399C15.1122 16.4257 18.6953 13.1675 18.7631 12.8719C18.7719 12.835 18.7806 12.6971 18.6975 12.6245C18.6165 12.5517 18.4962 12.5766 18.4087 12.5963C18.284 12.6243 16.3175 13.9254 12.5025 16.4995C11.9447 16.8831 11.4394 17.0702 10.9844 17.0603C10.4856 17.0496 9.5231 16.7777 8.80779 16.5454C7.93279 16.2604 7.23498 16.1096 7.29623 15.6256C7.32685 15.3736 7.67466 15.1156 8.33748 14.8521Z" fill="white"/>
</svg>
